<svg width="1200" height="630" viewBox="0 0 1200 630" fill="none" xmlns="http://www.w3.org/2000/svg">
    <rect width="1200" height="630" fill="#0EF032"/>
    <path
        d="M326.26 234.916C332.371 229.824 337.239 225.592 340.867 222.219C344.495 218.782 347.518 215.217 349.937 211.526C352.355 207.835 353.565 204.207 353.565 200.643C353.565 197.397 352.801 194.851 351.273 193.005C349.746 191.159 347.391 190.236 344.209 190.236C341.026 190.236 338.576 191.318 336.858 193.482C335.139 195.583 334.248 198.479 334.184 202.17H321.201C321.455 194.533 323.715 188.741 327.979 184.795C332.307 180.849 337.78 178.876 344.4 178.876C351.655 178.876 357.224 180.817 361.107 184.699C364.989 188.518 366.93 193.578 366.93 199.879C366.93 204.843 365.594 209.585 362.921 214.104C360.247 218.623 357.192 222.569 353.756 225.942C350.319 229.251 345.832 233.261 340.294 237.971H368.458V249.045H321.296V239.117L326.26 234.916ZM376.88 214.295C376.88 203.284 378.853 194.66 382.799 188.422C386.809 182.185 393.428 179.067 402.657 179.067C411.885 179.067 418.473 182.185 422.419 188.422C426.428 194.66 428.433 203.284 428.433 214.295C428.433 225.369 426.428 234.057 422.419 240.358C418.473 246.659 411.885 249.809 402.657 249.809C393.428 249.809 386.809 246.659 382.799 240.358C378.853 234.057 376.88 225.369 376.88 214.295ZM415.258 214.295C415.258 209.585 414.94 205.639 414.304 202.456C413.731 199.21 412.522 196.569 410.676 194.533C408.894 192.496 406.221 191.478 402.657 191.478C399.092 191.478 396.387 192.496 394.542 194.533C392.76 196.569 391.55 199.21 390.914 202.456C390.341 205.639 390.055 209.585 390.055 214.295C390.055 219.132 390.341 223.205 390.914 226.515C391.487 229.761 392.696 232.402 394.542 234.439C396.387 236.412 399.092 237.398 402.657 237.398C406.221 237.398 408.926 236.412 410.771 234.439C412.617 232.402 413.826 229.761 414.399 226.515C414.972 223.205 415.258 219.132 415.258 214.295ZM442.8 234.916C448.91 229.824 453.779 225.592 457.407 222.219C461.034 218.782 464.058 215.217 466.476 211.526C468.895 207.835 470.104 204.207 470.104 200.643C470.104 197.397 469.34 194.851 467.813 193.005C466.285 191.159 463.93 190.236 460.748 190.236C457.566 190.236 455.115 191.318 453.397 193.482C451.678 195.583 450.787 198.479 450.724 202.17H437.74C437.995 194.533 440.254 188.741 444.518 184.795C448.846 180.849 454.32 178.876 460.939 178.876C468.195 178.876 473.764 180.817 477.646 184.699C481.528 188.518 483.47 193.578 483.47 199.879C483.47 204.843 482.133 209.585 479.46 214.104C476.787 218.623 473.732 222.569 470.295 225.942C466.858 229.251 462.371 233.261 456.834 237.971H484.997V249.045H437.835V239.117L442.8 234.916ZM493.61 198.733C493.928 192.369 496.156 187.468 500.293 184.031C504.494 180.53 509.999 178.78 516.809 178.78C521.455 178.78 525.433 179.608 528.743 181.262C532.052 182.853 534.535 185.049 536.189 187.85C537.908 190.586 538.767 193.705 538.767 197.206C538.767 201.215 537.717 204.62 535.617 207.421C533.58 210.158 531.13 212.003 528.265 212.958V213.34C531.957 214.486 534.821 216.522 536.858 219.45C538.958 222.378 540.008 226.133 540.008 230.715C540.008 234.534 539.117 237.939 537.335 240.93C535.617 243.922 533.039 246.277 529.602 247.995C526.229 249.65 522.155 250.477 517.382 250.477C510.19 250.477 504.335 248.663 499.816 245.036C495.297 241.408 492.91 236.062 492.655 228.997H505.639C505.767 232.115 506.817 234.629 508.79 236.539C510.826 238.385 513.595 239.307 517.096 239.307C520.342 239.307 522.824 238.416 524.542 236.634C526.324 234.789 527.215 232.434 527.215 229.57C527.215 225.751 526.006 223.014 523.587 221.359C521.169 219.705 517.414 218.877 512.322 218.877H509.554V207.898H512.322C521.36 207.898 525.879 204.875 525.879 198.829C525.879 196.092 525.051 193.96 523.397 192.432C521.805 190.905 519.482 190.141 516.427 190.141C513.436 190.141 511.113 190.968 509.458 192.623C507.867 194.214 506.944 196.251 506.689 198.733H493.61ZM346.595 349.668C341.949 349.668 337.749 348.873 333.993 347.282C330.302 345.69 327.374 343.399 325.21 340.408C323.046 337.416 321.933 333.884 321.869 329.811H336.189C336.38 332.548 337.335 334.711 339.053 336.303C340.835 337.894 343.254 338.689 346.309 338.689C349.428 338.689 351.878 337.957 353.66 336.494C355.442 334.966 356.333 332.993 356.333 330.574C356.333 328.601 355.729 326.978 354.519 325.706C353.31 324.433 351.783 323.446 349.937 322.746C348.155 321.982 345.673 321.155 342.49 320.264C338.162 318.991 334.63 317.75 331.893 316.541C329.22 315.268 326.897 313.39 324.924 310.908C323.015 308.362 322.06 304.989 322.06 300.788C322.06 296.842 323.046 293.405 325.019 290.478C326.992 287.55 329.761 285.322 333.325 283.795C336.889 282.204 340.963 281.408 345.545 281.408C352.419 281.408 357.988 283.095 362.252 286.468C366.58 289.777 368.967 294.424 369.412 300.406H354.71C354.583 298.115 353.596 296.237 351.751 294.774C349.969 293.246 347.582 292.482 344.591 292.482C341.981 292.482 339.881 293.151 338.29 294.487C336.762 295.824 335.998 297.765 335.998 300.311C335.998 302.093 336.571 303.589 337.717 304.798C338.926 305.943 340.39 306.898 342.108 307.662C343.89 308.362 346.373 309.189 349.555 310.144C353.883 311.417 357.415 312.69 360.152 313.963C362.889 315.236 365.244 317.145 367.217 319.691C369.19 322.237 370.176 325.578 370.176 329.715C370.176 333.279 369.253 336.589 367.408 339.644C365.562 342.699 362.857 345.149 359.293 346.995C355.729 348.777 351.496 349.668 346.595 349.668ZM419.57 314.822C423.325 315.522 426.411 317.4 428.83 320.455C431.249 323.51 432.458 327.01 432.458 330.956C432.458 334.521 431.567 337.671 429.785 340.408C428.066 343.081 425.552 345.181 422.243 346.709C418.933 348.236 415.019 349 410.5 349H381.764V282.363H409.259C413.778 282.363 417.66 283.095 420.906 284.558C424.216 286.022 426.698 288.059 428.353 290.668C430.071 293.278 430.93 296.237 430.93 299.547C430.93 303.429 429.88 306.675 427.78 309.285C425.743 311.894 423.006 313.74 419.57 314.822ZM395.129 309.858H407.349C410.532 309.858 412.982 309.158 414.701 307.757C416.419 306.294 417.278 304.225 417.278 301.552C417.278 298.879 416.419 296.81 414.701 295.346C412.982 293.883 410.532 293.151 407.349 293.151H395.129V309.858ZM408.591 338.117C411.837 338.117 414.351 337.353 416.133 335.825C417.978 334.298 418.901 332.134 418.901 329.333C418.901 326.469 417.947 324.242 416.037 322.651C414.128 320.996 411.55 320.168 408.304 320.168H395.129V338.117H408.591ZM456.476 338.403H478.434V349H443.11V282.363H456.476V338.403ZM510.223 282.363C517.224 282.363 523.366 283.731 528.649 286.468C533.995 289.205 538.1 293.119 540.964 298.21C543.892 303.239 545.356 309.094 545.356 315.777C545.356 322.46 543.892 328.315 540.964 333.343C538.1 338.307 533.995 342.158 528.649 344.895C523.366 347.632 517.224 349 510.223 349H486.929V282.363H510.223ZM509.746 337.639C516.747 337.639 522.157 335.73 525.976 331.911C529.794 328.092 531.704 322.714 531.704 315.777C531.704 308.839 529.794 303.429 525.976 299.547C522.157 295.601 516.747 293.628 509.746 293.628H500.294V337.639H509.746Z"
        fill="#111211"/>
    <path
        d="M320.341 412.161C320.341 405.606 321.805 399.75 324.733 394.595C327.724 389.376 331.766 385.335 336.858 382.47C342.013 379.543 347.773 378.079 354.137 378.079C361.584 378.079 368.108 379.988 373.709 383.807C379.309 387.626 383.224 392.908 385.451 399.655H370.081C368.553 396.473 366.389 394.086 363.589 392.495C360.852 390.904 357.67 390.108 354.042 390.108C350.16 390.108 346.691 391.031 343.636 392.877C340.644 394.659 338.29 397.204 336.571 400.514C334.916 403.824 334.089 407.706 334.089 412.161C334.089 416.553 334.916 420.435 336.571 423.809C338.29 427.118 340.644 429.696 343.636 431.541C346.691 433.324 350.16 434.215 354.042 434.215C357.67 434.215 360.852 433.419 363.589 431.828C366.389 430.173 368.553 427.755 370.081 424.572H385.451C383.224 431.382 379.309 436.697 373.709 440.516C368.171 444.271 361.648 446.148 354.137 446.148C347.773 446.148 342.013 444.716 336.858 441.852C331.766 438.924 327.724 434.883 324.733 429.728C321.805 424.572 320.341 418.717 320.341 412.161ZM420.353 446.435C415.261 446.435 410.678 445.321 406.605 443.093C402.532 440.802 399.318 437.588 396.963 433.451C394.671 429.314 393.526 424.54 393.526 419.131C393.526 413.721 394.703 408.947 397.058 404.81C399.477 400.673 402.755 397.491 406.892 395.263C411.029 392.972 415.643 391.826 420.735 391.826C425.826 391.826 430.441 392.972 434.578 395.263C438.715 397.491 441.96 400.673 444.315 404.81C446.734 408.947 447.943 413.721 447.943 419.131C447.943 424.54 446.702 429.314 444.22 433.451C441.801 437.588 438.492 440.802 434.291 443.093C430.154 445.321 425.508 446.435 420.353 446.435ZM420.353 434.787C422.771 434.787 425.031 434.215 427.131 433.069C429.295 431.86 431.013 430.078 432.286 427.723C433.559 425.368 434.196 422.504 434.196 419.131C434.196 414.102 432.859 410.252 430.186 407.579C427.576 404.842 424.362 403.474 420.544 403.474C416.725 403.474 413.511 404.842 410.901 407.579C408.355 410.252 407.082 414.102 407.082 419.131C407.082 424.159 408.324 428.041 410.806 430.778C413.352 433.451 416.534 434.787 420.353 434.787ZM487.056 391.922C493.357 391.922 498.449 393.927 502.331 397.936C506.214 401.882 508.155 407.42 508.155 414.548V445.575H494.789V416.362C494.789 412.161 493.739 408.947 491.639 406.72C489.539 404.428 486.675 403.283 483.047 403.283C479.355 403.283 476.428 404.428 474.264 406.72C472.163 408.947 471.113 412.161 471.113 416.362V445.575H457.747V392.686H471.113V399.273C472.895 396.982 475.155 395.2 477.891 393.927C480.692 392.59 483.747 391.922 487.056 391.922ZM545.114 403.665H535.854V445.575H522.297V403.665H516.283V392.686H522.297V390.012C522.297 383.521 524.143 378.747 527.834 375.692C531.526 372.637 537.095 371.205 544.541 371.396V382.661C541.295 382.598 539.036 383.139 537.763 384.284C536.49 385.43 535.854 387.498 535.854 390.49V392.686H545.114V403.665ZM602.942 417.985C602.942 419.894 602.815 421.613 602.56 423.14H563.896C564.214 426.959 565.55 429.95 567.905 432.114C570.26 434.278 573.156 435.36 576.593 435.36C581.557 435.36 585.09 433.228 587.19 428.964H601.606C600.078 434.056 597.151 438.256 592.823 441.566C588.495 444.812 583.18 446.435 576.879 446.435C571.788 446.435 567.205 445.321 563.132 443.093C559.122 440.802 555.972 437.588 553.68 433.451C551.453 429.314 550.339 424.54 550.339 419.131C550.339 413.657 551.453 408.852 553.68 404.715C555.908 400.578 559.027 397.395 563.036 395.168C567.046 392.94 571.66 391.826 576.879 391.826C581.907 391.826 586.394 392.908 590.34 395.072C594.35 397.236 597.437 400.323 599.601 404.333C601.829 408.279 602.942 412.83 602.942 417.985ZM589.099 414.166C589.036 410.729 587.795 407.992 585.376 405.956C582.957 403.855 579.998 402.805 576.497 402.805C573.188 402.805 570.387 403.824 568.096 405.86C565.869 407.833 564.5 410.602 563.991 414.166H589.099ZM626.064 400.896C627.782 398.096 630.01 395.9 632.747 394.309C635.547 392.717 638.729 391.922 642.293 391.922V405.956H638.761C634.56 405.956 631.378 406.942 629.214 408.915C627.114 410.888 626.064 414.325 626.064 419.226V445.575H612.698V392.686H626.064V400.896ZM700.462 417.985C700.462 419.894 700.335 421.613 700.081 423.14H661.416C661.734 426.959 663.07 429.95 665.425 432.114C667.78 434.278 670.676 435.36 674.113 435.36C679.077 435.36 682.61 433.228 684.71 428.964H699.126C697.598 434.056 694.671 438.256 690.343 441.566C686.015 444.812 680.7 446.435 674.399 446.435C669.308 446.435 664.725 445.321 660.652 443.093C656.642 440.802 653.492 437.588 651.2 433.451C648.973 429.314 647.859 424.54 647.859 419.131C647.859 413.657 648.973 408.852 651.2 404.715C653.428 400.578 656.547 397.395 660.556 395.168C664.566 392.94 669.18 391.826 674.399 391.826C679.427 391.826 683.914 392.908 687.861 395.072C691.87 397.236 694.957 400.323 697.121 404.333C699.349 408.279 700.462 412.83 700.462 417.985ZM686.619 414.166C686.556 410.729 685.315 407.992 682.896 405.956C680.478 403.855 677.518 402.805 674.018 402.805C670.708 402.805 667.907 403.824 665.616 405.86C663.389 407.833 662.02 410.602 661.511 414.166H686.619ZM739.527 391.922C745.828 391.922 750.92 393.927 754.802 397.936C758.685 401.882 760.626 407.42 760.626 414.548V445.575H747.26V416.362C747.26 412.161 746.21 408.947 744.11 406.72C742.009 404.428 739.145 403.283 735.517 403.283C731.826 403.283 728.898 404.428 726.734 406.72C724.634 408.947 723.584 412.161 723.584 416.362V445.575H710.218V392.686H723.584V399.273C725.366 396.982 727.625 395.2 730.362 393.927C733.163 392.59 736.218 391.922 739.527 391.922ZM769.899 419.131C769.899 413.657 771.013 408.884 773.24 404.81C775.468 400.673 778.555 397.491 782.501 395.263C786.447 392.972 790.966 391.826 796.057 391.826C802.613 391.826 808.023 393.481 812.287 396.791C816.615 400.037 819.511 404.619 820.975 410.538H806.559C805.795 408.247 804.491 406.465 802.645 405.192C800.863 403.855 798.635 403.187 795.962 403.187C792.143 403.187 789.12 404.587 786.892 407.388C784.665 410.125 783.551 414.039 783.551 419.131C783.551 424.159 784.665 428.073 786.892 430.873C789.12 433.61 792.143 434.978 795.962 434.978C801.372 434.978 804.904 432.56 806.559 427.723H820.975C819.511 433.451 816.615 438.002 812.287 441.375C807.959 444.748 802.549 446.435 796.057 446.435C790.966 446.435 786.447 445.321 782.501 443.093C778.555 440.802 775.468 437.62 773.24 433.546C771.013 429.409 769.899 424.604 769.899 419.131ZM879.933 417.985C879.933 419.894 879.806 421.613 879.551 423.14H840.886C841.204 426.959 842.541 429.95 844.896 432.114C847.251 434.278 850.147 435.36 853.583 435.36C858.548 435.36 862.08 433.228 864.181 428.964H878.596C877.069 434.056 874.141 438.256 869.813 441.566C865.485 444.812 860.171 446.435 853.87 446.435C848.778 446.435 844.196 445.321 840.122 443.093C836.113 440.802 832.962 437.588 830.671 433.451C828.443 429.314 827.33 424.54 827.33 419.131C827.33 413.657 828.443 408.852 830.671 404.715C832.899 400.578 836.017 397.395 840.027 395.168C844.037 392.94 848.651 391.826 853.87 391.826C858.898 391.826 863.385 392.908 867.331 395.072C871.341 397.236 874.428 400.323 876.592 404.333C878.819 408.279 879.933 412.83 879.933 417.985ZM866.09 414.166C866.026 410.729 864.785 407.992 862.367 405.956C859.948 403.855 856.989 402.805 853.488 402.805C850.178 402.805 847.378 403.824 845.087 405.86C842.859 407.833 841.491 410.602 840.982 414.166H866.09Z"
        fill="#111211"/>
    <path d="M583.622 346.184V243.49L648.388 208.622H871.378V311.565L806.465 346.184H583.622Z" stroke="#111211"
          stroke-width="1.2448"/>
    <circle cx="647.548" cy="300.538" r="2.28488" fill="#111211"/>
    <circle cx="802.311" cy="243.987" r="2.28488" fill="#111211"/>
</svg>
